<mxfile host="Electron" modified="2024-11-12T11:51:01.201Z" agent="Mozilla/5.0 (Windows NT 10.0; Win64; x64) AppleWebKit/537.36 (KHTML, like Gecko) draw.io/21.2.1 Chrome/112.0.5615.87 Electron/24.1.2 Safari/537.36" etag="6GgFdjC90wVxYXYIXsMw" version="21.2.1" type="device">
  <diagram name="Page-1" id="HX2LSlzFj-6M0Oshe4_P">
    <mxGraphModel dx="1036" dy="606" grid="1" gridSize="10" guides="1" tooltips="1" connect="1" arrows="1" fold="1" page="1" pageScale="1" pageWidth="850" pageHeight="1100" math="0" shadow="0">
      <root>
        <mxCell id="0" />
        <mxCell id="1" parent="0" />
        <mxCell id="EOqzKRfQdQB9Fz0RHTPX-14" style="edgeStyle=orthogonalEdgeStyle;rounded=0;orthogonalLoop=1;jettySize=auto;html=1;exitX=1;exitY=0.5;exitDx=0;exitDy=0;entryX=0;entryY=0.5;entryDx=0;entryDy=0;" edge="1" parent="1" source="EOqzKRfQdQB9Fz0RHTPX-1" target="EOqzKRfQdQB9Fz0RHTPX-2">
          <mxGeometry relative="1" as="geometry" />
        </mxCell>
        <mxCell id="EOqzKRfQdQB9Fz0RHTPX-1" value="Start" style="rhombus;whiteSpace=wrap;html=1;fillColor=#d5e8d4;strokeColor=#82b366;" vertex="1" parent="1">
          <mxGeometry x="40" y="80" width="80" height="80" as="geometry" />
        </mxCell>
        <mxCell id="EOqzKRfQdQB9Fz0RHTPX-15" style="edgeStyle=orthogonalEdgeStyle;rounded=0;orthogonalLoop=1;jettySize=auto;html=1;exitX=1;exitY=0.5;exitDx=0;exitDy=0;entryX=0;entryY=0.5;entryDx=0;entryDy=0;" edge="1" parent="1" source="EOqzKRfQdQB9Fz0RHTPX-2" target="EOqzKRfQdQB9Fz0RHTPX-3">
          <mxGeometry relative="1" as="geometry" />
        </mxCell>
        <mxCell id="EOqzKRfQdQB9Fz0RHTPX-2" value="Import Necessary&lt;br&gt;Directories" style="rounded=0;whiteSpace=wrap;html=1;fillColor=#e1d5e7;strokeColor=#9673a6;" vertex="1" parent="1">
          <mxGeometry x="160" y="90" width="120" height="60" as="geometry" />
        </mxCell>
        <mxCell id="EOqzKRfQdQB9Fz0RHTPX-16" style="edgeStyle=orthogonalEdgeStyle;rounded=0;orthogonalLoop=1;jettySize=auto;html=1;exitX=1;exitY=0.5;exitDx=0;exitDy=0;entryX=0;entryY=0.5;entryDx=0;entryDy=0;" edge="1" parent="1" source="EOqzKRfQdQB9Fz0RHTPX-3" target="EOqzKRfQdQB9Fz0RHTPX-4">
          <mxGeometry relative="1" as="geometry" />
        </mxCell>
        <mxCell id="EOqzKRfQdQB9Fz0RHTPX-3" value="Load Data&lt;br&gt;from CSV File" style="rounded=0;whiteSpace=wrap;html=1;fillColor=#e1d5e7;strokeColor=#9673a6;" vertex="1" parent="1">
          <mxGeometry x="320" y="90" width="120" height="60" as="geometry" />
        </mxCell>
        <mxCell id="EOqzKRfQdQB9Fz0RHTPX-17" style="edgeStyle=orthogonalEdgeStyle;rounded=0;orthogonalLoop=1;jettySize=auto;html=1;entryX=0;entryY=0.5;entryDx=0;entryDy=0;" edge="1" parent="1" source="EOqzKRfQdQB9Fz0RHTPX-4" target="EOqzKRfQdQB9Fz0RHTPX-5">
          <mxGeometry relative="1" as="geometry" />
        </mxCell>
        <mxCell id="EOqzKRfQdQB9Fz0RHTPX-4" value="Plot Graph of&lt;br&gt;Stock Closing Values" style="rounded=0;whiteSpace=wrap;html=1;fillColor=#e1d5e7;strokeColor=#9673a6;" vertex="1" parent="1">
          <mxGeometry x="480" y="90" width="120" height="60" as="geometry" />
        </mxCell>
        <mxCell id="EOqzKRfQdQB9Fz0RHTPX-18" style="edgeStyle=orthogonalEdgeStyle;rounded=0;orthogonalLoop=1;jettySize=auto;html=1;exitX=1;exitY=0.5;exitDx=0;exitDy=0;entryX=1;entryY=0.5;entryDx=0;entryDy=0;" edge="1" parent="1" source="EOqzKRfQdQB9Fz0RHTPX-5" target="EOqzKRfQdQB9Fz0RHTPX-6">
          <mxGeometry relative="1" as="geometry" />
        </mxCell>
        <mxCell id="EOqzKRfQdQB9Fz0RHTPX-5" value="Convert Data&lt;br&gt;to DataFrame" style="rounded=0;whiteSpace=wrap;html=1;fillColor=#e1d5e7;strokeColor=#9673a6;" vertex="1" parent="1">
          <mxGeometry x="640" y="90" width="120" height="60" as="geometry" />
        </mxCell>
        <mxCell id="EOqzKRfQdQB9Fz0RHTPX-19" style="edgeStyle=orthogonalEdgeStyle;rounded=0;orthogonalLoop=1;jettySize=auto;html=1;exitX=0;exitY=0.5;exitDx=0;exitDy=0;entryX=1;entryY=0.5;entryDx=0;entryDy=0;" edge="1" parent="1" source="EOqzKRfQdQB9Fz0RHTPX-6" target="EOqzKRfQdQB9Fz0RHTPX-7">
          <mxGeometry relative="1" as="geometry" />
        </mxCell>
        <mxCell id="EOqzKRfQdQB9Fz0RHTPX-6" value="Scale Data to&amp;nbsp;&lt;br&gt;Fixed Ranges" style="rounded=0;whiteSpace=wrap;html=1;fillColor=#e1d5e7;strokeColor=#9673a6;" vertex="1" parent="1">
          <mxGeometry x="640" y="210" width="120" height="60" as="geometry" />
        </mxCell>
        <mxCell id="EOqzKRfQdQB9Fz0RHTPX-20" style="edgeStyle=orthogonalEdgeStyle;rounded=0;orthogonalLoop=1;jettySize=auto;html=1;exitX=0;exitY=0.5;exitDx=0;exitDy=0;entryX=1;entryY=0.5;entryDx=0;entryDy=0;" edge="1" parent="1" source="EOqzKRfQdQB9Fz0RHTPX-7" target="EOqzKRfQdQB9Fz0RHTPX-8">
          <mxGeometry relative="1" as="geometry" />
        </mxCell>
        <mxCell id="EOqzKRfQdQB9Fz0RHTPX-7" value="Split Data into&lt;br&gt;Training and Testing&lt;br&gt;Data" style="rounded=0;whiteSpace=wrap;html=1;fillColor=#e1d5e7;strokeColor=#9673a6;" vertex="1" parent="1">
          <mxGeometry x="480" y="210" width="120" height="60" as="geometry" />
        </mxCell>
        <mxCell id="EOqzKRfQdQB9Fz0RHTPX-21" style="edgeStyle=orthogonalEdgeStyle;rounded=0;orthogonalLoop=1;jettySize=auto;html=1;exitX=0;exitY=0.5;exitDx=0;exitDy=0;entryX=1;entryY=0.5;entryDx=0;entryDy=0;" edge="1" parent="1" source="EOqzKRfQdQB9Fz0RHTPX-8" target="EOqzKRfQdQB9Fz0RHTPX-9">
          <mxGeometry relative="1" as="geometry" />
        </mxCell>
        <mxCell id="EOqzKRfQdQB9Fz0RHTPX-8" value="Create LSTM&lt;br&gt;Model" style="rounded=0;whiteSpace=wrap;html=1;fillColor=#e1d5e7;strokeColor=#9673a6;" vertex="1" parent="1">
          <mxGeometry x="320" y="210" width="120" height="60" as="geometry" />
        </mxCell>
        <mxCell id="EOqzKRfQdQB9Fz0RHTPX-22" style="edgeStyle=orthogonalEdgeStyle;rounded=0;orthogonalLoop=1;jettySize=auto;html=1;exitX=0;exitY=0.5;exitDx=0;exitDy=0;entryX=0;entryY=0.5;entryDx=0;entryDy=0;" edge="1" parent="1" source="EOqzKRfQdQB9Fz0RHTPX-9" target="EOqzKRfQdQB9Fz0RHTPX-11">
          <mxGeometry relative="1" as="geometry" />
        </mxCell>
        <mxCell id="EOqzKRfQdQB9Fz0RHTPX-9" value="Train and Test &lt;br&gt;Model" style="rounded=0;whiteSpace=wrap;html=1;fillColor=#e1d5e7;strokeColor=#9673a6;" vertex="1" parent="1">
          <mxGeometry x="160" y="210" width="120" height="60" as="geometry" />
        </mxCell>
        <mxCell id="EOqzKRfQdQB9Fz0RHTPX-24" style="edgeStyle=orthogonalEdgeStyle;rounded=0;orthogonalLoop=1;jettySize=auto;html=1;exitX=1;exitY=0.5;exitDx=0;exitDy=0;entryX=0;entryY=0.5;entryDx=0;entryDy=0;" edge="1" parent="1" source="EOqzKRfQdQB9Fz0RHTPX-10" target="EOqzKRfQdQB9Fz0RHTPX-12">
          <mxGeometry relative="1" as="geometry" />
        </mxCell>
        <mxCell id="EOqzKRfQdQB9Fz0RHTPX-10" value="Run Sample&lt;br&gt;Predictions from&lt;br&gt;Data Values" style="rounded=0;whiteSpace=wrap;html=1;fillColor=#e1d5e7;strokeColor=#9673a6;" vertex="1" parent="1">
          <mxGeometry x="320" y="330" width="120" height="60" as="geometry" />
        </mxCell>
        <mxCell id="EOqzKRfQdQB9Fz0RHTPX-23" style="edgeStyle=orthogonalEdgeStyle;rounded=0;orthogonalLoop=1;jettySize=auto;html=1;exitX=1;exitY=0.5;exitDx=0;exitDy=0;entryX=0;entryY=0.5;entryDx=0;entryDy=0;" edge="1" parent="1" source="EOqzKRfQdQB9Fz0RHTPX-11" target="EOqzKRfQdQB9Fz0RHTPX-10">
          <mxGeometry relative="1" as="geometry" />
        </mxCell>
        <mxCell id="EOqzKRfQdQB9Fz0RHTPX-11" value="Save Model as&amp;nbsp;&lt;br&gt;H5 File" style="rounded=0;whiteSpace=wrap;html=1;fillColor=#e1d5e7;strokeColor=#9673a6;" vertex="1" parent="1">
          <mxGeometry x="160" y="330" width="120" height="60" as="geometry" />
        </mxCell>
        <mxCell id="EOqzKRfQdQB9Fz0RHTPX-25" style="edgeStyle=orthogonalEdgeStyle;rounded=0;orthogonalLoop=1;jettySize=auto;html=1;exitX=1;exitY=0.5;exitDx=0;exitDy=0;entryX=0;entryY=0.5;entryDx=0;entryDy=0;" edge="1" parent="1" source="EOqzKRfQdQB9Fz0RHTPX-12" target="EOqzKRfQdQB9Fz0RHTPX-13">
          <mxGeometry relative="1" as="geometry" />
        </mxCell>
        <mxCell id="EOqzKRfQdQB9Fz0RHTPX-12" value="Plot Graph for&amp;nbsp;&lt;br&gt;Predicted Values" style="rounded=0;whiteSpace=wrap;html=1;fillColor=#e1d5e7;strokeColor=#9673a6;" vertex="1" parent="1">
          <mxGeometry x="480" y="330" width="120" height="60" as="geometry" />
        </mxCell>
        <mxCell id="EOqzKRfQdQB9Fz0RHTPX-13" value="End" style="rhombus;whiteSpace=wrap;html=1;fillColor=#d5e8d4;strokeColor=#82b366;" vertex="1" parent="1">
          <mxGeometry x="660" y="320" width="80" height="80" as="geometry" />
        </mxCell>
        <mxCell id="EOqzKRfQdQB9Fz0RHTPX-26" value="Stock Price Prediction" style="swimlane;whiteSpace=wrap;html=1;fillColor=#dae8fc;strokeColor=#6c8ebf;rounded=1;shadow=1;glass=1;" vertex="1" parent="1">
          <mxGeometry x="30" y="30" width="770" height="390" as="geometry" />
        </mxCell>
      </root>
    </mxGraphModel>
  </diagram>
</mxfile>
